<svg width="63" height="51" viewBox="0 0 63 51" fill="none" xmlns="http://www.w3.org/2000/svg">
<path d="M46.4735 51H9.68427C3.59613 51 -0.980103 45.448 0.180829 39.4717L6.32875 7.8334C7.21392 3.28416 11.1981 0 15.8322 0H52.6214C58.7095 0 63.2858 5.55203 62.1248 11.5283L55.9769 43.1666C55.0937 47.7158 51.1075 51 46.4735 51Z" fill="url(#paint0_linear_162_834)"/>
<path d="M10.7566 12.0356H13.0071L11.2252 19.8092C11.5955 19.4775 12.0198 19.1902 12.4961 18.9472C12.9724 18.7042 13.5336 18.5037 14.1758 18.3475C14.818 18.1913 15.5739 18.0756 16.4398 17.9965C17.3057 17.9193 18.3239 17.8788 19.4945 17.8788C21.5193 17.8788 23.1566 17.9965 24.4043 18.2298C25.6501 18.4632 26.5815 18.8874 27.1948 19.5007C27.808 20.1139 28.1397 20.9374 28.188 21.9691C28.2362 23.0028 28.0761 24.3257 27.7058 25.9437C27.3356 27.5404 26.8882 28.8614 26.3617 29.9028C25.8352 30.9461 25.1236 31.7734 24.2288 32.3866C23.3321 32.9999 22.2078 33.4241 20.854 33.6575C19.5002 33.8908 17.809 34.0085 15.7841 34.0085C13.7592 34.0085 12.1509 33.8908 10.9032 33.6575C9.6574 33.4241 8.7221 33.0057 8.09728 32.4001C7.47439 31.7965 7.13305 30.9731 7.07519 29.9317C7.01734 28.8903 7.17162 27.5597 7.54188 25.9437L10.7566 12.0337V12.0356ZM9.79239 25.9456C9.50119 27.1933 9.36813 28.2 9.39706 28.9694C9.42598 29.7389 9.67476 30.329 10.1414 30.7378C10.6081 31.1466 11.3352 31.4205 12.3187 31.5555C13.3022 31.6924 14.6232 31.7599 16.2778 31.7599C17.9324 31.7599 19.292 31.6924 20.3546 31.5555C21.4171 31.4186 22.2734 31.1466 22.9252 30.7378C23.577 30.329 24.09 29.7408 24.4602 28.9694C24.8305 28.2 25.1622 27.1914 25.4534 25.9456C25.7465 24.6786 25.8815 23.6662 25.8622 22.9063C25.8429 22.1465 25.6 21.5622 25.1313 21.1534C24.6627 20.7445 23.9338 20.4726 22.9387 20.3357C21.9455 20.1988 20.6207 20.1313 18.9641 20.1313C17.3076 20.1313 15.9538 20.1988 14.9028 20.3357C13.8518 20.4726 12.9936 20.7445 12.3322 21.1534C11.6707 21.5622 11.1539 22.1465 10.7836 22.9063C10.4134 23.6662 10.0817 24.6786 9.79046 25.9456H9.79239Z" fill="white"/>
<path d="M31.8249 18.1719H34.0754L30.4808 33.7172H28.2303L31.8249 18.1719ZM33.3156 16.6233C32.7698 16.6233 32.4285 16.5308 32.2935 16.3456C32.1566 16.1605 32.147 15.8057 32.2646 15.2792C32.4015 14.7334 32.5751 14.3786 32.7911 14.2128C33.0051 14.0469 33.385 13.964 33.9308 13.964C34.4765 13.964 34.7928 14.0469 34.9394 14.2128C35.0859 14.3786 35.0898 14.7334 34.9548 15.2792C34.8372 15.8057 34.6674 16.1605 34.4437 16.3456C34.22 16.5308 33.844 16.6233 33.3195 16.6233H33.3156Z" fill="white"/>
<path d="M34.5999 25.9454C34.9701 24.3487 35.433 23.0335 35.9884 21.9998C36.5438 20.9681 37.2785 20.1446 38.1945 19.5314C39.1105 18.9181 40.2599 18.49 41.6426 18.2451C43.0253 18.0021 44.7301 17.8806 46.7569 17.8806C48.7837 17.8806 50.4345 18.0021 51.7092 18.2451C52.9858 18.4881 53.9404 18.9181 54.5729 19.5314C55.2055 20.1446 55.5564 20.9681 55.6239 21.9998C55.6914 23.0335 55.541 24.3467 55.1707 25.9454C54.8005 27.5422 54.3434 28.8574 53.7977 29.8911C53.2519 30.9247 52.521 31.7462 51.6069 32.3595C50.6909 32.9727 49.5416 33.4008 48.1589 33.6458C46.7762 33.8887 45.0714 34.0102 43.0446 34.0102C41.0178 34.0102 39.367 33.8887 38.0923 33.6458C36.8157 33.4028 35.8611 32.9747 35.2286 32.3595C34.596 31.7462 34.2393 30.9228 34.1621 29.8911C34.0831 28.8593 34.2296 27.5441 34.5999 25.9454ZM36.8504 25.9454C36.5592 27.1931 36.4261 28.1998 36.457 28.9692C36.4859 29.7387 36.7443 30.3288 37.2322 30.7376C37.7182 31.1465 38.4684 31.4203 39.4827 31.5553C40.4952 31.6922 41.849 31.7597 43.5441 31.7597C45.2392 31.7597 46.6277 31.6922 47.7076 31.5553C48.7895 31.4184 49.6708 31.1465 50.3515 30.7376C51.0323 30.3288 51.5587 29.7406 51.929 28.9692C52.2993 28.1998 52.631 27.1912 52.9222 25.9454C53.2153 24.6784 53.3464 23.666 53.3175 22.9062C53.2886 22.1464 53.034 21.562 52.5577 21.1532C52.0794 20.7444 51.3312 20.4725 50.3072 20.3355C49.2851 20.1986 47.9255 20.1311 46.2304 20.1311C44.5353 20.1311 43.1468 20.1986 42.0669 20.3355C40.985 20.4725 40.1095 20.7444 39.4365 21.1532C38.7653 21.562 38.2389 22.1464 37.859 22.9062C37.4791 23.666 37.1435 24.6784 36.8504 25.9454Z" fill="white"/>
<path d="M35.7475 36.5983C35.8227 37.9019 35.1207 39.1092 34.2336 40.0078C31.5801 42.6228 26.8881 42.7347 24.1767 40.2007L24.2134 40.004L25.0002 40.1062L25.7889 40.1775C29.1193 40.4649 32.8548 39.7918 35.1149 37.1325C35.2827 36.9339 35.4428 36.7217 35.57 36.5057L35.7494 36.5964L35.7475 36.5983Z" fill="white"/>
<defs>
<linearGradient id="paint0_linear_162_834" x1="-0.000445915" y1="25.5" x2="62.3061" y2="25.5" gradientUnits="userSpaceOnUse">
<stop stop-color="#FF2C8F"/>
<stop offset="1" stop-color="#9129E0"/>
</linearGradient>
</defs>
</svg>
